<?xml version="1.0" encoding="utf-8"?>
<!-- Generator: Adobe Illustrator 24.2.1, SVG Export Plug-In . SVG Version: 6.00 Build 0)  -->
<svg version="1.1" id="Calque_1" xmlns="http://www.w3.org/2000/svg" xmlns:xlink="http://www.w3.org/1999/xlink" x="0px" y="0px"
	 viewBox="0 0 181.7 181.7" style="enable-background:new 0 0 181.7 181.7;" xml:space="preserve">
<style type="text/css">
	.st0{fill:#FFFFFF;}
</style>
<path class="st0" d="M161.7,0c-11.1,0-20,8.9-20,20v93.4l-22.8-22.8c0.8,0.1,1.6,0.2,2.5,0.2c7.8,0,14.2-6.3,14.2-14.2
	c0-7.8-6.4-14.2-14.2-14.2c-7.8,0-14.2,6.3-14.2,14.2c0,0.8,0.1,1.7,0.2,2.5L89.4,61.1c13.4-2.2,23.7-13.9,23.7-28
	c0-15.7-12.7-28.3-28.3-28.3C70.6,4.8,59,15,56.8,28.5L34.2,5.9c-5.7-5.7-14.3-7.4-21.8-4.3C4.9,4.6,0,11.9,0,20v141.7
	c0,11.1,8.9,20,20,20s20-8.9,20-20V68.3l107.6,107.6c3.8,3.8,8.9,5.9,14.1,5.9c2.6,0,5.2-0.5,7.6-1.5c7.5-3.1,12.4-10.4,12.4-18.5
	V20C181.7,8.9,172.8,0,161.7,0z"/>
</svg>
