<?xml version="1.0" encoding="utf-8"?>
<!-- Generator: Adobe Illustrator 24.2.1, SVG Export Plug-In . SVG Version: 6.00 Build 0)  -->
<svg version="1.1" id="Calque_1" xmlns="http://www.w3.org/2000/svg" xmlns:xlink="http://www.w3.org/1999/xlink" x="0px" y="0px"
	 viewBox="0 0 181.73 181.73" style="enable-background:new 0 0 181.73 181.73;" xml:space="preserve">
<style type="text/css">
	.st0{fill:url(#SVGID_1_);}
</style>
<linearGradient id="SVGID_1_" gradientUnits="userSpaceOnUse" x1="0" y1="90.8668" x2="181.7324" y2="90.8668">
	<stop  offset="0.2202" style="stop-color:#52A9FF"/>
	<stop  offset="0.7865" style="stop-color:#C180FF"/>
</linearGradient>
<path class="st0" d="M161.73,0c-11.05,0-20,8.95-20,20v93.45l-22.81-22.81c0.81,0.14,1.64,0.23,2.49,0.23
	c7.83,0,14.17-6.35,14.17-14.17c0-7.83-6.35-14.17-14.17-14.17c-7.83,0-14.17,6.35-14.17,14.17c0,0.85,0.09,1.68,0.23,2.49
	l-18.1-18.1c13.44-2.22,23.69-13.89,23.69-27.96c0-15.66-12.69-28.35-28.35-28.35c-14.07,0-25.73,10.25-27.96,23.69l-22.6-22.6
	c-5.72-5.72-14.32-7.43-21.8-4.34C4.87,4.62,0,11.91,0,20v141.73c0,11.05,8.95,20,20,20s20-8.95,20-20V68.28l107.59,107.59
	c3.83,3.83,8.94,5.86,14.15,5.86c2.58,0,5.18-0.5,7.65-1.52c7.47-3.1,12.35-10.39,12.35-18.48V20C181.73,8.95,172.78,0,161.73,0z"/>
</svg>
