<?xml version="1.0" encoding="utf-8"?>
<!-- Generator: Adobe Illustrator 24.2.1, SVG Export Plug-In . SVG Version: 6.00 Build 0)  -->
<svg version="1.1" xmlns="http://www.w3.org/2000/svg" xmlns:xlink="http://www.w3.org/1999/xlink" x="0px" y="0px"
	 viewBox="0 0 45.4 22.7" style="enable-background:new 0 0 45.4 22.7;" xml:space="preserve">
<style type="text/css">
	.st0{fill:#E584FC;}
	.st1{font-family:'Calibri-Bold';}
	.st2{font-size:26.7816px;}
</style>
<g id="Calque_1">
</g>
<g id="Calque_2">
	<g>
		<path class="st0" d="M36.1,13.1c-0.3,0-0.6-0.1-0.8-0.3s-0.3-0.5-0.3-0.8c0-0.3,0.1-0.6,0.3-0.8s0.5-0.3,0.8-0.3
			c0.3,0,0.6,0.1,0.8,0.3s0.3,0.5,0.3,0.8c0,0.3-0.1,0.6-0.3,0.8S36.4,13.1,36.1,13.1z M30.8,13.1c-0.3,0-0.6-0.1-0.8-0.3
			c-0.2-0.2-0.3-0.5-0.3-0.8c0-0.3,0.1-0.6,0.3-0.8c0.2-0.2,0.5-0.3,0.8-0.3s0.6,0.1,0.8,0.3c0.2,0.2,0.3,0.5,0.3,0.8
			c0,0.3-0.1,0.6-0.3,0.8C31.4,13,31.2,13.1,30.8,13.1z M33.5,18.5c-0.9,0-1.8-0.2-2.5-0.8c-0.8-0.5-1.4-1.2-1.8-2h8.7
			c-0.4,0.8-1,1.5-1.8,2C35.2,18.3,34.4,18.5,33.5,18.5z M33.5,22.7c-1.2,0-2.4-0.2-3.5-0.7c-1.1-0.5-2-1.1-2.9-1.9
			c-0.8-0.8-1.5-1.8-1.9-2.9c-0.5-1.1-0.7-2.3-0.7-3.5s0.2-2.4,0.7-3.5s1.1-2,1.9-2.9c0.8-0.8,1.8-1.5,2.9-1.9
			c1.1-0.5,2.3-0.7,3.5-0.7c1.2,0,2.4,0.2,3.5,0.7c1.1,0.5,2,1.1,2.9,1.9c0.8,0.8,1.5,1.8,1.9,2.9c0.5,1.1,0.7,2.3,0.7,3.5
			s-0.2,2.4-0.7,3.5c-0.5,1.1-1.1,2-1.9,2.9C39,20.8,38,21.5,36.9,22C35.9,22.4,34.7,22.7,33.5,22.7z M33.5,21.2
			c2.1,0,3.8-0.7,5.3-2.2c1.5-1.5,2.2-3.2,2.2-5.3s-0.7-3.8-2.2-5.4c-1.5-1.5-3.2-2.3-5.4-2.3H33c-0.1,0-0.3,0-0.4,0
			c0,0.1-0.1,0.3-0.1,0.5s0,0.3,0,0.5c0,0.4,0.1,0.8,0.4,1c0.3,0.3,0.6,0.4,1,0.4c0.2,0,0.4,0,0.5,0c0.1,0,0.3,0,0.4,0
			c0.2,0,0.3,0,0.4,0.1s0.2,0.2,0.2,0.4c0,0.3-0.1,0.5-0.4,0.6s-0.6,0.2-1.1,0.2c-0.8,0-1.4-0.3-1.9-0.8c-0.5-0.5-0.8-1.2-0.8-1.9
			c0-0.1,0-0.2,0-0.3c0-0.1,0-0.2,0.1-0.3c-1.5,0.5-2.8,1.5-3.8,2.8S26,11.9,26,13.6c0,2.1,0.7,3.8,2.2,5.3S31.4,21.2,33.5,21.2z"/>
	</g>
	<text transform="matrix(1 0 0 1 4.9859 22.3242)" class="st0 st1 st2">5</text>
</g>
</svg>
