<?xml version="1.0" encoding="utf-8"?>
<!-- Generator: Adobe Illustrator 24.2.1, SVG Export Plug-In . SVG Version: 6.00 Build 0)  -->
<svg version="1.1" id="Calque_1" xmlns="http://www.w3.org/2000/svg" xmlns:xlink="http://www.w3.org/1999/xlink" x="0px" y="0px"
	 viewBox="0 0 48 48" style="enable-background:new 0 0 48 48;" xml:space="preserve">
<style type="text/css">
	.st0{fill:#CD98FD;}
</style>
<path class="st0" d="M24,31.1c3-2.7,4.9-4.6,5.7-5.7c0.8-1.1,1.3-2.2,1.3-3.3c0-1.1-0.4-2-1.1-2.7s-1.7-1.1-2.7-1.1
	c-0.6,0-1.2,0.1-1.8,0.4s-1,0.6-1.4,1c-0.4-0.4-0.8-0.8-1.4-1s-1.1-0.4-1.8-0.4c-1.1,0-2,0.4-2.7,1.1S17,21.1,17,22.1
	c0,0.5,0.1,1,0.2,1.5c0.1,0.5,0.5,1,1,1.7s1.2,1.4,2.1,2.3C21.2,28.5,22.5,29.7,24,31.1z M24,43.9c-4.7-1.2-8.5-3.9-11.5-8.1
	S8,26.9,8,21.8V9.9l16-6l16,6v11.9c0,5.1-1.5,9.7-4.5,14S28.7,42.8,24,43.9z M24,40.8c3.8-1.3,7-3.7,9.4-7.2S37,26.2,37,21.8V12
	L24,7.1L11,12v9.8c0,4.4,1.2,8.3,3.6,11.8S20.2,39.6,24,40.8z"/>
</svg>
